<?xml version="1.0" encoding="UTF-8" standalone="no"?>
<!DOCTYPE svg PUBLIC "-//W3C//DTD SVG 1.1//EN" "http://www.w3.org/Graphics/SVG/1.1/DTD/svg11.dtd">
<svg width="150" height="150" viewBox="0 0 200 200" version="1.1" xmlns="http://www.w3.org/2000/svg" xmlns:xlink="http://www.w3.org/1999/xlink" xml:space="preserve" xmlns:serif="http://www.serif.com/" style="fill-rule:evenodd;clip-rule:evenodd;stroke-linejoin:round;stroke-miterlimit:2;">
    <g transform="matrix(1,0,0,1,-53,-182)">
        <g transform="matrix(1.33422,0,0,1.33422,-248.857,-18.4024)">
            <rect x="240.029" y="166.274" width="33.727" height="33.727"/>
        </g>
        <g transform="matrix(1.33422,0,0,1.33422,-248.857,37.156)">
            <rect x="240.029" y="166.274" width="33.727" height="33.727"/>
        </g>
        <g transform="matrix(1.33422,0,0,1.33422,-248.857,92.0237)">
            <rect x="240.029" y="166.274" width="33.727" height="33.727"/>
        </g>
        <g transform="matrix(1.33422,0,0,1.33422,-193.511,-18.4024)">
            <rect x="240.029" y="166.274" width="33.727" height="33.727"/>
        </g>
        <g transform="matrix(1.33422,0,0,1.33422,-193.511,37.156)">
            <rect x="240.029" y="166.274" width="33.727" height="33.727"/>
        </g>
        <g transform="matrix(1.33422,0,0,1.33422,-138.331,-18.4024)">
            <rect x="240.029" y="166.274" width="33.727" height="33.727"/>
        </g>
        <g transform="matrix(1.33422,0,0,1.33422,-138.331,37.156)">
            <rect x="240.029" y="166.274" width="33.727" height="33.727"/>
        </g>
        <g transform="matrix(1.66667,0,0,1.66667,-370.503,-71.5714)">
            <text x="273.616px" y="184.868px" style="font-family:'ArialMT', 'Arial', sans-serif;font-size:18px;fill:white;">7</text>
        </g>
        <g transform="matrix(1.31579,0,0,1.31579,-276.68,-5.65058)">
            <text x="274.72px" y="224.899px" style="font-family:'ArialMT', 'Arial', sans-serif;font-size:18px;fill:white;">G</text>
        </g>
        <g transform="matrix(1.31579,0,0,1.31579,-276.399,-3.1553)">
            <text x="317.005px" y="222.783px" style="font-family:'ArialMT', 'Arial', sans-serif;font-size:18px;fill:white;">U</text>
        </g>
        <g transform="matrix(1.31579,0,0,1.31579,-266.742,-6.78974)">
            <text x="355.553px" y="225.545px" style="font-family:'ArialMT', 'Arial', sans-serif;font-size:18px;fill:white;">I</text>
        </g>
        <g transform="matrix(1.31579,0,0,1.31579,-268.381,-7.96774)">
            <text x="270.901px" y="266.364px" style="font-family:'ArialMT', 'Arial', sans-serif;font-size:18px;fill:white;">s</text>
        </g>
    </g>
</svg>
