<?xml version="1.0" encoding="UTF-8" standalone="no"?><!DOCTYPE svg PUBLIC "-//W3C//DTD SVG 1.1//EN" "http://www.w3.org/Graphics/SVG/1.1/DTD/svg11.dtd"><svg width="150" height="150" viewBox="0 0 199 200" version="1.1" xmlns="http://www.w3.org/2000/svg" xmlns:xlink="http://www.w3.org/1999/xlink" xml:space="preserve" xmlns:serif="http://www.serif.com/" style="fill-rule:evenodd;clip-rule:evenodd;stroke-linejoin:round;stroke-miterlimit:2;"><path d="M98.878,34.036c-34.788,-0 -62.997,28.203 -62.997,62.998c-0,27.833 18.05,51.447 43.081,59.777c3.149,0.583 4.305,-1.367 4.305,-3.031c-0,-1.501 -0.059,-6.464 -0.086,-11.728c-17.526,3.81 -21.224,-7.433 -21.224,-7.433c-2.866,-7.281 -6.995,-9.218 -6.995,-9.218c-5.716,-3.91 0.431,-3.83 0.431,-3.83c6.326,0.445 9.657,6.493 9.657,6.493c5.619,9.63 14.737,6.846 18.332,5.236c0.567,-4.071 2.198,-6.851 4,-8.424c-13.993,-1.592 -28.702,-6.995 -28.702,-31.134c-0,-6.877 2.461,-12.497 6.491,-16.909c-0.654,-1.587 -2.811,-7.994 0.611,-16.672c0,0 5.29,-1.692 17.328,6.459c5.025,-1.396 10.414,-2.096 15.768,-2.121c5.354,0.025 10.747,0.725 15.782,2.121c12.024,-8.151 17.307,-6.459 17.307,-6.459c3.429,8.678 1.273,15.085 0.619,16.672c4.039,4.412 6.482,10.032 6.482,16.909c0,24.198 -14.737,29.524 -28.766,31.084c2.26,1.955 4.273,5.789 4.273,11.666c0,8.429 -0.071,15.213 -0.071,17.288c-0,1.678 1.132,3.641 4.326,3.024c25.018,-8.34 43.046,-31.946 43.046,-59.77c-0,-34.795 -28.205,-62.998 -62.998,-62.998"/></svg>